<svg xmlns="http://www.w3.org/2000/svg" width="20" height="20" viewBox="0 0 20 20">
    <g fill="none" fill-rule="evenodd">
        <g fill="#2031BA">
            <g>
                <path d="M20 6c.276 0 .5.224.5.5l-.001 12.999L33.5 19.5c.276 0 .5.224.5.5s-.224.5-.5.5l-13.001-.001L20.5 33.5c0 .276-.224.5-.5.5s-.5-.224-.5-.5l-.001-13.001L6.5 20.5c-.276 0-.5-.224-.5-.5s.224-.5.5-.5l12.999-.001L19.5 6.5c0-.276.224-.5.5-.5z" transform="translate(-1380 -40) translate(1370 30) rotate(45 20 20)"/>
            </g>
        </g>
    </g>
</svg>
