<svg xmlns="http://www.w3.org/2000/svg" width="13" height="42" viewBox="0 0 13 42">
    <g fill="none" fill-rule="evenodd">
        <g fill="#00435F">
            <g>
                <path d="M-7.612 15.141c.19.189.19.495.002.684l-.002.002-4.72 4.696h38.845c.269 0 .487.219.487.488v.002c0 .27-.218.487-.487.487h-38.84l4.69 4.666c.19.19.191.499.001.69l-.005.004c-.19.19-.497.19-.687 0l-5.504-5.477-.013-.013-.012-.012c-.19-.189-.19-.495-.002-.684l.002-.002 5.557-5.53c.19-.19.498-.19.688 0z" transform="translate(-714 -3662) translate(714 3662) matrix(0 -1 -1 0 27.5 27.5)"/>
            </g>
        </g>
    </g>
</svg>
