<svg xmlns="http://www.w3.org/2000/svg" width="57" height="37" viewBox="0 0 57 37">
    <g fill="none" fill-rule="evenodd">
        <g fill="#2031BA">
            <g>
                <g>
                    <path d="M56.607 9.003h-4.549L53.596.222 47.67 12.854h4.163l-1.412 8.359 6.187-12.21zM36.435 9l6.528 15.519V35.5h5.686V24.285L42.399 9h-5.964zm-7.837 19.936c0 1.313-.557 2.109-2.029 2.109h-2.261V24.16h2.023c1.471 0 2.267.796 2.267 2.348v2.428zm-4.29-15.48h2.142c1.472 0 2.029.836 2.029 2.15v2.307c0 1.552-.796 2.308-2.268 2.308h-1.903v-6.764zm5.88 8.476c2.704-.477 3.699-2.427 3.699-4.934v-1.91c0-3.78-2.347-6.088-6.641-6.088H18.58v26.501h8.783c4.295 0 6.681-2.268 6.681-6.088v-2.547c0-2.467-1.033-4.337-3.857-4.934zM0 9v26.501h11.861l.977-4.86H5.687v-6.76h6.243v-4.297H5.687v-5.81h7.348V9H0z" transform="translate(-1053 -44) translate(1040 40) translate(13.241 4.581)"/>
                </g>
            </g>
        </g>
    </g>
</svg>
